G04*
G04 #@! TF.GenerationSoftware,Altium Limited,Altium Designer,24.6.1 (21)*
G04*
G04 Layer_Color=15132400*
%FSLAX25Y25*%
%MOIN*%
G70*
G04*
G04 #@! TF.SameCoordinates,92C08AAC-CC59-47DC-8000-F7C2F8DBA572*
G04*
G04*
G04 #@! TF.FilePolarity,Positive*
G04*
G01*
G75*
%ADD10C,0.00984*%
%ADD11C,0.00787*%
G36*
X8285Y33840D02*
Y28000D01*
X1715D01*
Y33840D01*
X8285D01*
D02*
G37*
G36*
X47723Y16000D02*
X42000D01*
Y21973D01*
X47723D01*
Y16000D01*
D02*
G37*
G36*
X47590Y8000D02*
X42000D01*
Y13973D01*
X47590D01*
Y8000D01*
D02*
G37*
G36*
X48481Y36000D02*
X40000D01*
Y41840D01*
X48481D01*
Y36000D01*
D02*
G37*
G36*
X9481D02*
X1000D01*
Y41840D01*
X9481D01*
Y36000D01*
D02*
G37*
G36*
X35385Y11009D02*
X34457D01*
X34379Y10574D01*
X34382D01*
X34387Y10577D01*
X34396Y10582D01*
X34407Y10588D01*
X34424Y10593D01*
X34440Y10602D01*
X34482Y10616D01*
X34534Y10632D01*
X34590Y10643D01*
X34651Y10654D01*
X34714Y10657D01*
X34728D01*
X34745Y10654D01*
X34770D01*
X34797Y10649D01*
X34831Y10643D01*
X34867Y10638D01*
X34905Y10627D01*
X34950Y10616D01*
X34994Y10599D01*
X35039Y10580D01*
X35086Y10557D01*
X35133Y10530D01*
X35180Y10496D01*
X35224Y10460D01*
X35268Y10419D01*
X35271Y10416D01*
X35280Y10408D01*
X35291Y10394D01*
X35304Y10374D01*
X35321Y10352D01*
X35340Y10325D01*
X35362Y10291D01*
X35385Y10253D01*
X35404Y10211D01*
X35426Y10164D01*
X35446Y10111D01*
X35462Y10059D01*
X35476Y9998D01*
X35487Y9937D01*
X35495Y9870D01*
X35498Y9801D01*
Y9798D01*
Y9787D01*
Y9771D01*
X35495Y9748D01*
X35493Y9721D01*
X35487Y9688D01*
X35482Y9651D01*
X35476Y9613D01*
X35465Y9568D01*
X35454Y9524D01*
X35437Y9477D01*
X35421Y9430D01*
X35399Y9380D01*
X35374Y9333D01*
X35346Y9283D01*
X35313Y9236D01*
X35310Y9233D01*
X35302Y9222D01*
X35288Y9206D01*
X35266Y9183D01*
X35241Y9159D01*
X35210Y9128D01*
X35174Y9098D01*
X35133Y9067D01*
X35086Y9037D01*
X35033Y9006D01*
X34977Y8976D01*
X34917Y8951D01*
X34850Y8929D01*
X34778Y8912D01*
X34701Y8901D01*
X34620Y8898D01*
X34587D01*
X34562Y8901D01*
X34532Y8904D01*
X34495Y8909D01*
X34457Y8915D01*
X34415Y8923D01*
X34324Y8945D01*
X34274Y8959D01*
X34227Y8978D01*
X34177Y9001D01*
X34130Y9025D01*
X34086Y9053D01*
X34041Y9087D01*
X34038Y9089D01*
X34033Y9095D01*
X34022Y9106D01*
X34005Y9122D01*
X33989Y9142D01*
X33969Y9164D01*
X33947Y9192D01*
X33925Y9222D01*
X33903Y9258D01*
X33881Y9297D01*
X33858Y9339D01*
X33836Y9383D01*
X33817Y9433D01*
X33800Y9485D01*
X33789Y9541D01*
X33778Y9599D01*
X34266Y9651D01*
Y9649D01*
Y9643D01*
X34268Y9635D01*
X34271Y9624D01*
X34277Y9593D01*
X34288Y9557D01*
X34304Y9513D01*
X34327Y9471D01*
X34354Y9427D01*
X34387Y9388D01*
X34393Y9386D01*
X34407Y9375D01*
X34426Y9358D01*
X34457Y9341D01*
X34490Y9322D01*
X34532Y9308D01*
X34576Y9297D01*
X34626Y9291D01*
X34640D01*
X34651Y9294D01*
X34681Y9297D01*
X34717Y9308D01*
X34759Y9322D01*
X34800Y9344D01*
X34845Y9375D01*
X34867Y9394D01*
X34886Y9416D01*
Y9419D01*
X34892Y9422D01*
X34897Y9430D01*
X34903Y9438D01*
X34911Y9452D01*
X34919Y9469D01*
X34930Y9488D01*
X34942Y9510D01*
X34950Y9535D01*
X34961Y9563D01*
X34969Y9593D01*
X34977Y9627D01*
X34983Y9665D01*
X34989Y9704D01*
X34994Y9748D01*
Y9793D01*
Y9796D01*
Y9804D01*
Y9815D01*
X34991Y9832D01*
Y9851D01*
X34989Y9873D01*
X34980Y9926D01*
X34969Y9984D01*
X34950Y10042D01*
X34922Y10097D01*
X34886Y10147D01*
Y10150D01*
X34881Y10153D01*
X34867Y10167D01*
X34845Y10186D01*
X34811Y10208D01*
X34773Y10228D01*
X34725Y10247D01*
X34673Y10261D01*
X34642Y10266D01*
X34593D01*
X34576Y10264D01*
X34556Y10261D01*
X34537Y10255D01*
X34484Y10244D01*
X34426Y10222D01*
X34393Y10205D01*
X34363Y10189D01*
X34329Y10167D01*
X34296Y10142D01*
X34263Y10114D01*
X34232Y10081D01*
X33836Y10136D01*
X34088Y11469D01*
X35385D01*
Y11009D01*
D02*
G37*
G36*
X32487Y11499D02*
X32526D01*
X32570Y11496D01*
X32615Y11494D01*
X32714Y11485D01*
X32811Y11471D01*
X32858Y11466D01*
X32906Y11455D01*
X32947Y11444D01*
X32983Y11433D01*
X32986D01*
X32991Y11430D01*
X33000Y11424D01*
X33014Y11419D01*
X33030Y11411D01*
X33047Y11402D01*
X33091Y11377D01*
X33138Y11341D01*
X33185Y11300D01*
X33235Y11247D01*
X33279Y11186D01*
Y11183D01*
X33285Y11178D01*
X33291Y11169D01*
X33296Y11156D01*
X33307Y11139D01*
X33316Y11120D01*
X33327Y11095D01*
X33338Y11070D01*
X33357Y11012D01*
X33377Y10942D01*
X33388Y10868D01*
X33393Y10785D01*
Y10782D01*
Y10771D01*
Y10757D01*
X33390Y10737D01*
X33388Y10712D01*
X33385Y10685D01*
X33379Y10651D01*
X33371Y10618D01*
X33351Y10541D01*
X33338Y10502D01*
X33321Y10463D01*
X33302Y10422D01*
X33279Y10383D01*
X33255Y10344D01*
X33224Y10308D01*
X33221Y10305D01*
X33216Y10300D01*
X33207Y10291D01*
X33194Y10278D01*
X33174Y10264D01*
X33152Y10247D01*
X33127Y10228D01*
X33097Y10208D01*
X33064Y10186D01*
X33027Y10167D01*
X32986Y10147D01*
X32939Y10128D01*
X32889Y10111D01*
X32836Y10095D01*
X32778Y10081D01*
X32717Y10070D01*
X32720D01*
X32726Y10064D01*
X32734Y10062D01*
X32745Y10053D01*
X32775Y10034D01*
X32814Y10006D01*
X32858Y9976D01*
X32906Y9940D01*
X32953Y9898D01*
X32994Y9856D01*
X33000Y9851D01*
X33005Y9843D01*
X33014Y9834D01*
X33025Y9821D01*
X33038Y9804D01*
X33055Y9785D01*
X33072Y9762D01*
X33091Y9735D01*
X33113Y9704D01*
X33138Y9671D01*
X33163Y9632D01*
X33191Y9591D01*
X33221Y9544D01*
X33255Y9496D01*
X33288Y9441D01*
X33601Y8945D01*
X32983D01*
X32609Y9502D01*
X32606Y9505D01*
X32601Y9516D01*
X32590Y9530D01*
X32576Y9549D01*
X32562Y9574D01*
X32543Y9599D01*
X32501Y9660D01*
X32454Y9724D01*
X32410Y9785D01*
X32388Y9812D01*
X32368Y9837D01*
X32352Y9859D01*
X32335Y9876D01*
X32332Y9879D01*
X32324Y9890D01*
X32307Y9901D01*
X32288Y9917D01*
X32266Y9937D01*
X32238Y9954D01*
X32210Y9970D01*
X32180Y9981D01*
X32177Y9984D01*
X32163Y9987D01*
X32144Y9992D01*
X32116Y9998D01*
X32080Y10003D01*
X32036Y10006D01*
X31983Y10012D01*
X31817D01*
Y8945D01*
X31302D01*
Y11502D01*
X32454D01*
X32487Y11499D01*
D02*
G37*
G36*
X18592Y9862D02*
X18911D01*
Y9433D01*
X18592D01*
Y8918D01*
X18119D01*
Y9433D01*
X17074D01*
Y9859D01*
X18180Y11483D01*
X18592D01*
Y9862D01*
D02*
G37*
G36*
X15875Y11471D02*
X15914D01*
X15958Y11469D01*
X16002Y11466D01*
X16102Y11458D01*
X16199Y11444D01*
X16246Y11438D01*
X16293Y11427D01*
X16335Y11416D01*
X16371Y11405D01*
X16373D01*
X16379Y11402D01*
X16387Y11397D01*
X16401Y11391D01*
X16418Y11383D01*
X16434Y11374D01*
X16479Y11350D01*
X16526Y11314D01*
X16573Y11272D01*
X16623Y11219D01*
X16667Y11158D01*
Y11156D01*
X16673Y11150D01*
X16678Y11142D01*
X16684Y11128D01*
X16695Y11111D01*
X16703Y11092D01*
X16714Y11067D01*
X16725Y11042D01*
X16745Y10984D01*
X16764Y10915D01*
X16775Y10840D01*
X16781Y10757D01*
Y10754D01*
Y10743D01*
Y10729D01*
X16778Y10710D01*
X16775Y10685D01*
X16772Y10657D01*
X16767Y10624D01*
X16758Y10591D01*
X16739Y10513D01*
X16725Y10474D01*
X16709Y10435D01*
X16689Y10394D01*
X16667Y10355D01*
X16642Y10316D01*
X16612Y10280D01*
X16609Y10278D01*
X16603Y10272D01*
X16595Y10264D01*
X16581Y10250D01*
X16562Y10236D01*
X16540Y10219D01*
X16515Y10200D01*
X16484Y10181D01*
X16451Y10159D01*
X16415Y10139D01*
X16373Y10120D01*
X16326Y10100D01*
X16276Y10084D01*
X16224Y10067D01*
X16166Y10053D01*
X16105Y10042D01*
X16107D01*
X16113Y10037D01*
X16121Y10034D01*
X16132Y10025D01*
X16163Y10006D01*
X16202Y9978D01*
X16246Y9948D01*
X16293Y9912D01*
X16340Y9870D01*
X16382Y9829D01*
X16387Y9823D01*
X16393Y9815D01*
X16401Y9807D01*
X16412Y9793D01*
X16426Y9776D01*
X16443Y9757D01*
X16459Y9735D01*
X16479Y9707D01*
X16501Y9676D01*
X16526Y9643D01*
X16551Y9604D01*
X16578Y9563D01*
X16609Y9516D01*
X16642Y9469D01*
X16675Y9413D01*
X16988Y8918D01*
X16371D01*
X15997Y9474D01*
X15994Y9477D01*
X15988Y9488D01*
X15977Y9502D01*
X15964Y9521D01*
X15950Y9546D01*
X15930Y9571D01*
X15889Y9632D01*
X15842Y9696D01*
X15797Y9757D01*
X15775Y9785D01*
X15756Y9809D01*
X15739Y9832D01*
X15722Y9848D01*
X15720Y9851D01*
X15711Y9862D01*
X15695Y9873D01*
X15675Y9890D01*
X15653Y9909D01*
X15626Y9926D01*
X15598Y9942D01*
X15567Y9954D01*
X15565Y9956D01*
X15551Y9959D01*
X15531Y9965D01*
X15504Y9970D01*
X15468Y9976D01*
X15423Y9978D01*
X15371Y9984D01*
X15204D01*
Y8918D01*
X14689D01*
Y11474D01*
X15842D01*
X15875Y11471D01*
D02*
G37*
G36*
X9131Y17273D02*
X9153D01*
X9183Y17268D01*
X9216Y17262D01*
X9252Y17257D01*
X9294Y17246D01*
X9338Y17232D01*
X9385Y17215D01*
X9432Y17196D01*
X9480Y17171D01*
X9529Y17143D01*
X9576Y17110D01*
X9623Y17074D01*
X9671Y17030D01*
X9673Y17027D01*
X9682Y17018D01*
X9693Y17005D01*
X9707Y16985D01*
X9726Y16960D01*
X9745Y16933D01*
X9768Y16899D01*
X9787Y16861D01*
X9809Y16819D01*
X9831Y16772D01*
X9851Y16719D01*
X9870Y16667D01*
X9884Y16609D01*
X9895Y16548D01*
X9903Y16481D01*
X9906Y16415D01*
Y16398D01*
X9903Y16381D01*
Y16356D01*
X9900Y16329D01*
X9895Y16293D01*
X9889Y16254D01*
X9881Y16212D01*
X9870Y16168D01*
X9856Y16121D01*
X9842Y16074D01*
X9823Y16027D01*
X9798Y15977D01*
X9773Y15930D01*
X9743Y15883D01*
X9707Y15838D01*
X9704Y15836D01*
X9698Y15827D01*
X9687Y15816D01*
X9671Y15802D01*
X9651Y15786D01*
X9626Y15764D01*
X9599Y15744D01*
X9565Y15719D01*
X9529Y15697D01*
X9491Y15675D01*
X9449Y15653D01*
X9402Y15631D01*
X9352Y15614D01*
X9299Y15597D01*
X9241Y15584D01*
X9183Y15575D01*
X9125Y16049D01*
X9128D01*
X9133D01*
X9142Y16052D01*
X9155Y16055D01*
X9189Y16060D01*
X9227Y16074D01*
X9274Y16088D01*
X9319Y16110D01*
X9366Y16138D01*
X9405Y16171D01*
X9408Y16176D01*
X9419Y16187D01*
X9435Y16210D01*
X9452Y16237D01*
X9468Y16273D01*
X9485Y16315D01*
X9496Y16362D01*
X9499Y16412D01*
Y16426D01*
X9496Y16437D01*
X9493Y16465D01*
X9485Y16500D01*
X9471Y16542D01*
X9452Y16584D01*
X9424Y16628D01*
X9385Y16669D01*
X9380Y16675D01*
X9363Y16686D01*
X9338Y16703D01*
X9302Y16722D01*
X9258Y16741D01*
X9205Y16758D01*
X9144Y16769D01*
X9075Y16775D01*
X9072D01*
X9067D01*
X9058D01*
X9045Y16772D01*
X9028D01*
X9011Y16769D01*
X8970Y16764D01*
X8923Y16750D01*
X8873Y16733D01*
X8826Y16708D01*
X8781Y16675D01*
X8776Y16669D01*
X8765Y16658D01*
X8745Y16636D01*
X8726Y16609D01*
X8707Y16572D01*
X8687Y16531D01*
X8676Y16484D01*
X8671Y16431D01*
Y16415D01*
X8673Y16395D01*
X8676Y16368D01*
X8679Y16334D01*
X8687Y16298D01*
X8696Y16254D01*
X8709Y16207D01*
X8310Y16260D01*
Y16293D01*
X8308Y16309D01*
Y16329D01*
X8302Y16373D01*
X8294Y16423D01*
X8277Y16473D01*
X8255Y16520D01*
X8227Y16564D01*
X8222Y16570D01*
X8211Y16581D01*
X8191Y16598D01*
X8164Y16620D01*
X8128Y16639D01*
X8086Y16656D01*
X8039Y16667D01*
X7984Y16672D01*
X7981D01*
X7978D01*
X7961D01*
X7939Y16669D01*
X7909Y16664D01*
X7878Y16653D01*
X7842Y16639D01*
X7809Y16620D01*
X7779Y16595D01*
X7776Y16592D01*
X7768Y16581D01*
X7754Y16564D01*
X7740Y16539D01*
X7726Y16509D01*
X7712Y16476D01*
X7704Y16434D01*
X7701Y16387D01*
Y16365D01*
X7707Y16343D01*
X7712Y16312D01*
X7723Y16279D01*
X7737Y16243D01*
X7759Y16207D01*
X7790Y16171D01*
X7792Y16168D01*
X7806Y16157D01*
X7826Y16143D01*
X7853Y16124D01*
X7890Y16104D01*
X7931Y16088D01*
X7984Y16074D01*
X8042Y16063D01*
X7967Y15611D01*
X7964D01*
X7956Y15614D01*
X7945Y15617D01*
X7928Y15620D01*
X7909Y15625D01*
X7887Y15631D01*
X7834Y15647D01*
X7773Y15667D01*
X7712Y15692D01*
X7651Y15719D01*
X7596Y15753D01*
X7593D01*
X7590Y15758D01*
X7574Y15769D01*
X7546Y15791D01*
X7515Y15822D01*
X7480Y15858D01*
X7444Y15902D01*
X7407Y15955D01*
X7374Y16016D01*
Y16018D01*
X7372Y16024D01*
X7366Y16032D01*
X7360Y16046D01*
X7355Y16063D01*
X7349Y16082D01*
X7341Y16104D01*
X7333Y16129D01*
X7319Y16185D01*
X7305Y16251D01*
X7297Y16323D01*
X7294Y16401D01*
Y16417D01*
X7297Y16437D01*
Y16462D01*
X7302Y16492D01*
X7305Y16528D01*
X7313Y16567D01*
X7322Y16609D01*
X7335Y16656D01*
X7349Y16703D01*
X7369Y16750D01*
X7391Y16797D01*
X7419Y16847D01*
X7449Y16894D01*
X7485Y16938D01*
X7527Y16980D01*
X7529Y16983D01*
X7535Y16988D01*
X7546Y16996D01*
X7560Y17007D01*
X7576Y17021D01*
X7599Y17038D01*
X7624Y17054D01*
X7651Y17071D01*
X7712Y17104D01*
X7784Y17135D01*
X7823Y17146D01*
X7865Y17154D01*
X7906Y17160D01*
X7950Y17163D01*
X7953D01*
X7964D01*
X7984Y17160D01*
X8006Y17157D01*
X8033Y17152D01*
X8067Y17143D01*
X8106Y17132D01*
X8144Y17116D01*
X8186Y17096D01*
X8230Y17074D01*
X8275Y17043D01*
X8319Y17007D01*
X8363Y16966D01*
X8407Y16916D01*
X8449Y16858D01*
X8488Y16794D01*
Y16797D01*
X8491Y16805D01*
X8493Y16816D01*
X8499Y16830D01*
X8504Y16849D01*
X8513Y16872D01*
X8532Y16919D01*
X8560Y16977D01*
X8599Y17035D01*
X8643Y17090D01*
X8671Y17118D01*
X8701Y17143D01*
X8704Y17146D01*
X8709Y17149D01*
X8718Y17154D01*
X8729Y17165D01*
X8745Y17174D01*
X8765Y17185D01*
X8787Y17199D01*
X8812Y17210D01*
X8870Y17235D01*
X8936Y17257D01*
X9014Y17271D01*
X9056Y17273D01*
X9097Y17276D01*
X9100D01*
X9111D01*
X9131Y17273D01*
D02*
G37*
G36*
X9859Y14805D02*
X9302Y14431D01*
X9299Y14429D01*
X9288Y14423D01*
X9274Y14412D01*
X9255Y14398D01*
X9230Y14384D01*
X9205Y14365D01*
X9144Y14323D01*
X9081Y14276D01*
X9020Y14232D01*
X8992Y14210D01*
X8967Y14190D01*
X8945Y14174D01*
X8928Y14157D01*
X8925Y14154D01*
X8914Y14146D01*
X8903Y14129D01*
X8887Y14110D01*
X8867Y14088D01*
X8851Y14060D01*
X8834Y14032D01*
X8823Y14002D01*
X8820Y13999D01*
X8817Y13985D01*
X8812Y13966D01*
X8806Y13938D01*
X8801Y13902D01*
X8798Y13858D01*
X8793Y13805D01*
Y13639D01*
X9859D01*
Y13124D01*
X7302D01*
Y14276D01*
X7305Y14310D01*
Y14348D01*
X7308Y14392D01*
X7311Y14437D01*
X7319Y14537D01*
X7333Y14634D01*
X7338Y14681D01*
X7349Y14728D01*
X7360Y14769D01*
X7372Y14805D01*
Y14808D01*
X7374Y14814D01*
X7380Y14822D01*
X7385Y14836D01*
X7394Y14852D01*
X7402Y14869D01*
X7427Y14913D01*
X7463Y14960D01*
X7504Y15008D01*
X7557Y15057D01*
X7618Y15102D01*
X7621D01*
X7626Y15107D01*
X7635Y15113D01*
X7649Y15118D01*
X7665Y15129D01*
X7684Y15138D01*
X7709Y15149D01*
X7734Y15160D01*
X7792Y15179D01*
X7862Y15199D01*
X7937Y15210D01*
X8020Y15215D01*
X8022D01*
X8033D01*
X8047D01*
X8067Y15213D01*
X8092Y15210D01*
X8119Y15207D01*
X8153Y15201D01*
X8186Y15193D01*
X8263Y15174D01*
X8302Y15160D01*
X8341Y15143D01*
X8383Y15124D01*
X8421Y15102D01*
X8460Y15077D01*
X8496Y15046D01*
X8499Y15044D01*
X8504Y15038D01*
X8513Y15030D01*
X8527Y15016D01*
X8540Y14996D01*
X8557Y14974D01*
X8576Y14949D01*
X8596Y14919D01*
X8618Y14886D01*
X8637Y14850D01*
X8657Y14808D01*
X8676Y14761D01*
X8693Y14711D01*
X8709Y14659D01*
X8723Y14600D01*
X8734Y14539D01*
Y14542D01*
X8740Y14548D01*
X8743Y14556D01*
X8751Y14567D01*
X8770Y14597D01*
X8798Y14636D01*
X8828Y14681D01*
X8864Y14728D01*
X8906Y14775D01*
X8948Y14816D01*
X8953Y14822D01*
X8962Y14827D01*
X8970Y14836D01*
X8984Y14847D01*
X9000Y14861D01*
X9020Y14877D01*
X9042Y14894D01*
X9070Y14913D01*
X9100Y14935D01*
X9133Y14960D01*
X9172Y14985D01*
X9213Y15013D01*
X9261Y15044D01*
X9308Y15077D01*
X9363Y15110D01*
X9859Y15423D01*
Y14805D01*
D02*
G37*
G36*
X41814Y34280D02*
X41845Y34277D01*
X41881Y34271D01*
X41922Y34266D01*
X41967Y34258D01*
X42014Y34247D01*
X42061Y34233D01*
X42111Y34216D01*
X42161Y34197D01*
X42208Y34172D01*
X42255Y34144D01*
X42302Y34113D01*
X42343Y34078D01*
X42346Y34075D01*
X42352Y34069D01*
X42363Y34055D01*
X42377Y34042D01*
X42393Y34022D01*
X42413Y33997D01*
X42432Y33970D01*
X42454Y33936D01*
X42474Y33903D01*
X42493Y33864D01*
X42512Y33823D01*
X42529Y33778D01*
X42543Y33729D01*
X42554Y33679D01*
X42559Y33626D01*
X42562Y33571D01*
Y33568D01*
Y33562D01*
Y33554D01*
Y33540D01*
X42559Y33526D01*
Y33507D01*
X42554Y33465D01*
X42546Y33413D01*
X42535Y33357D01*
X42521Y33299D01*
X42499Y33241D01*
Y33238D01*
X42496Y33235D01*
X42493Y33224D01*
X42487Y33213D01*
X42479Y33199D01*
X42471Y33183D01*
X42452Y33141D01*
X42424Y33094D01*
X42390Y33039D01*
X42349Y32978D01*
X42302Y32914D01*
X42296Y32909D01*
X42285Y32892D01*
X42260Y32867D01*
X42230Y32831D01*
X42208Y32809D01*
X42186Y32784D01*
X42158Y32759D01*
X42130Y32728D01*
X42097Y32698D01*
X42061Y32662D01*
X42022Y32626D01*
X41981Y32587D01*
X41978Y32585D01*
X41969Y32579D01*
X41958Y32568D01*
X41945Y32554D01*
X41925Y32537D01*
X41903Y32518D01*
X41856Y32474D01*
X41806Y32427D01*
X41759Y32379D01*
X41737Y32357D01*
X41717Y32338D01*
X41701Y32319D01*
X41687Y32305D01*
X41684Y32302D01*
X41676Y32294D01*
X41665Y32280D01*
X41651Y32263D01*
X41637Y32241D01*
X41620Y32219D01*
X41587Y32172D01*
X42562D01*
Y31718D01*
X40845D01*
Y31720D01*
X40848Y31729D01*
Y31742D01*
X40850Y31762D01*
X40856Y31784D01*
X40861Y31812D01*
X40867Y31842D01*
X40875Y31875D01*
X40898Y31950D01*
X40928Y32033D01*
X40964Y32119D01*
X41011Y32205D01*
X41014Y32208D01*
X41017Y32216D01*
X41028Y32230D01*
X41039Y32247D01*
X41055Y32269D01*
X41078Y32299D01*
X41102Y32330D01*
X41133Y32368D01*
X41166Y32410D01*
X41208Y32454D01*
X41252Y32507D01*
X41302Y32560D01*
X41357Y32618D01*
X41421Y32682D01*
X41488Y32748D01*
X41562Y32817D01*
X41565Y32820D01*
X41576Y32831D01*
X41593Y32848D01*
X41615Y32867D01*
X41643Y32892D01*
X41670Y32920D01*
X41704Y32953D01*
X41737Y32986D01*
X41809Y33055D01*
X41875Y33125D01*
X41903Y33155D01*
X41931Y33186D01*
X41953Y33213D01*
X41969Y33235D01*
Y33238D01*
X41975Y33241D01*
X41978Y33249D01*
X41986Y33260D01*
X42003Y33291D01*
X42022Y33330D01*
X42039Y33374D01*
X42055Y33424D01*
X42066Y33479D01*
X42072Y33535D01*
Y33537D01*
Y33543D01*
Y33551D01*
Y33562D01*
X42066Y33590D01*
X42061Y33629D01*
X42050Y33668D01*
X42036Y33709D01*
X42014Y33751D01*
X41983Y33787D01*
X41981Y33789D01*
X41967Y33801D01*
X41947Y33814D01*
X41920Y33831D01*
X41884Y33848D01*
X41842Y33862D01*
X41795Y33873D01*
X41740Y33875D01*
X41715D01*
X41687Y33870D01*
X41651Y33864D01*
X41612Y33853D01*
X41571Y33836D01*
X41529Y33812D01*
X41493Y33781D01*
X41490Y33776D01*
X41479Y33764D01*
X41465Y33742D01*
X41446Y33709D01*
X41429Y33668D01*
X41413Y33615D01*
X41399Y33551D01*
X41393Y33515D01*
X41391Y33476D01*
X40903Y33523D01*
Y33529D01*
X40906Y33540D01*
X40909Y33562D01*
X40914Y33590D01*
X40920Y33623D01*
X40928Y33662D01*
X40939Y33704D01*
X40953Y33748D01*
X40969Y33795D01*
X40989Y33842D01*
X41011Y33892D01*
X41036Y33939D01*
X41064Y33986D01*
X41097Y34030D01*
X41133Y34069D01*
X41175Y34105D01*
X41177Y34108D01*
X41186Y34113D01*
X41199Y34122D01*
X41216Y34133D01*
X41238Y34147D01*
X41266Y34161D01*
X41296Y34177D01*
X41332Y34194D01*
X41374Y34211D01*
X41416Y34227D01*
X41463Y34241D01*
X41515Y34255D01*
X41568Y34266D01*
X41626Y34274D01*
X41687Y34280D01*
X41751Y34282D01*
X41787D01*
X41814Y34280D01*
D02*
G37*
G36*
X39623Y34271D02*
X39662D01*
X39706Y34269D01*
X39751Y34266D01*
X39850Y34258D01*
X39947Y34244D01*
X39994Y34238D01*
X40042Y34227D01*
X40083Y34216D01*
X40119Y34205D01*
X40122D01*
X40127Y34202D01*
X40136Y34197D01*
X40150Y34191D01*
X40166Y34183D01*
X40183Y34174D01*
X40227Y34150D01*
X40274Y34113D01*
X40321Y34072D01*
X40371Y34019D01*
X40415Y33958D01*
Y33956D01*
X40421Y33950D01*
X40427Y33942D01*
X40432Y33928D01*
X40443Y33911D01*
X40451Y33892D01*
X40463Y33867D01*
X40474Y33842D01*
X40493Y33784D01*
X40512Y33715D01*
X40524Y33640D01*
X40529Y33557D01*
Y33554D01*
Y33543D01*
Y33529D01*
X40526Y33510D01*
X40524Y33485D01*
X40521Y33457D01*
X40515Y33424D01*
X40507Y33391D01*
X40488Y33313D01*
X40474Y33274D01*
X40457Y33235D01*
X40438Y33194D01*
X40415Y33155D01*
X40391Y33116D01*
X40360Y33080D01*
X40357Y33078D01*
X40352Y33072D01*
X40343Y33064D01*
X40330Y33050D01*
X40310Y33036D01*
X40288Y33019D01*
X40263Y33000D01*
X40233Y32981D01*
X40200Y32958D01*
X40163Y32939D01*
X40122Y32920D01*
X40075Y32900D01*
X40025Y32884D01*
X39972Y32867D01*
X39914Y32853D01*
X39853Y32842D01*
X39856D01*
X39862Y32837D01*
X39870Y32834D01*
X39881Y32825D01*
X39911Y32806D01*
X39950Y32778D01*
X39994Y32748D01*
X40042Y32712D01*
X40089Y32670D01*
X40130Y32629D01*
X40136Y32623D01*
X40141Y32615D01*
X40150Y32607D01*
X40161Y32593D01*
X40174Y32576D01*
X40191Y32557D01*
X40208Y32535D01*
X40227Y32507D01*
X40249Y32476D01*
X40274Y32443D01*
X40299Y32405D01*
X40327Y32363D01*
X40357Y32316D01*
X40391Y32269D01*
X40424Y32213D01*
X40737Y31718D01*
X40119D01*
X39745Y32274D01*
X39742Y32277D01*
X39737Y32288D01*
X39726Y32302D01*
X39712Y32321D01*
X39698Y32346D01*
X39679Y32371D01*
X39637Y32432D01*
X39590Y32496D01*
X39546Y32557D01*
X39524Y32585D01*
X39504Y32609D01*
X39488Y32632D01*
X39471Y32648D01*
X39468Y32651D01*
X39460Y32662D01*
X39443Y32673D01*
X39424Y32690D01*
X39402Y32709D01*
X39374Y32726D01*
X39346Y32742D01*
X39316Y32754D01*
X39313Y32756D01*
X39299Y32759D01*
X39280Y32765D01*
X39252Y32770D01*
X39216Y32776D01*
X39172Y32778D01*
X39119Y32784D01*
X38953D01*
Y31718D01*
X38438D01*
Y34274D01*
X39590D01*
X39623Y34271D01*
D02*
G37*
G36*
X12761Y31517D02*
X12271D01*
Y33360D01*
X12268Y33357D01*
X12260Y33349D01*
X12243Y33335D01*
X12224Y33318D01*
X12199Y33299D01*
X12166Y33274D01*
X12133Y33246D01*
X12091Y33218D01*
X12047Y33188D01*
X12000Y33157D01*
X11947Y33127D01*
X11892Y33096D01*
X11834Y33066D01*
X11770Y33038D01*
X11706Y33013D01*
X11640Y32988D01*
Y33434D01*
X11642D01*
X11648Y33437D01*
X11659Y33440D01*
X11673Y33445D01*
X11692Y33454D01*
X11712Y33462D01*
X11737Y33473D01*
X11764Y33487D01*
X11825Y33517D01*
X11894Y33559D01*
X11972Y33609D01*
X12055Y33670D01*
X12058Y33673D01*
X12066Y33678D01*
X12077Y33686D01*
X12091Y33700D01*
X12111Y33717D01*
X12130Y33739D01*
X12152Y33761D01*
X12177Y33789D01*
X12230Y33850D01*
X12280Y33919D01*
X12327Y33997D01*
X12346Y34038D01*
X12363Y34082D01*
X12761D01*
Y31517D01*
D02*
G37*
G36*
X10224Y34071D02*
X10263D01*
X10307Y34069D01*
X10351Y34066D01*
X10451Y34058D01*
X10548Y34044D01*
X10595Y34038D01*
X10642Y34027D01*
X10684Y34016D01*
X10720Y34005D01*
X10723D01*
X10728Y34002D01*
X10737Y33997D01*
X10750Y33991D01*
X10767Y33983D01*
X10784Y33974D01*
X10828Y33950D01*
X10875Y33913D01*
X10922Y33872D01*
X10972Y33819D01*
X11016Y33758D01*
Y33756D01*
X11022Y33750D01*
X11027Y33742D01*
X11033Y33728D01*
X11044Y33711D01*
X11052Y33692D01*
X11063Y33667D01*
X11074Y33642D01*
X11094Y33584D01*
X11113Y33515D01*
X11124Y33440D01*
X11130Y33357D01*
Y33354D01*
Y33343D01*
Y33329D01*
X11127Y33310D01*
X11124Y33285D01*
X11122Y33257D01*
X11116Y33224D01*
X11108Y33191D01*
X11088Y33113D01*
X11074Y33074D01*
X11058Y33035D01*
X11039Y32994D01*
X11016Y32955D01*
X10991Y32916D01*
X10961Y32880D01*
X10958Y32878D01*
X10953Y32872D01*
X10944Y32864D01*
X10931Y32850D01*
X10911Y32836D01*
X10889Y32819D01*
X10864Y32800D01*
X10834Y32781D01*
X10800Y32758D01*
X10764Y32739D01*
X10723Y32720D01*
X10676Y32700D01*
X10626Y32684D01*
X10573Y32667D01*
X10515Y32653D01*
X10454Y32642D01*
X10457D01*
X10462Y32637D01*
X10471Y32634D01*
X10482Y32625D01*
X10512Y32606D01*
X10551Y32578D01*
X10595Y32548D01*
X10642Y32512D01*
X10689Y32470D01*
X10731Y32429D01*
X10737Y32423D01*
X10742Y32415D01*
X10750Y32407D01*
X10762Y32393D01*
X10775Y32376D01*
X10792Y32357D01*
X10809Y32335D01*
X10828Y32307D01*
X10850Y32276D01*
X10875Y32243D01*
X10900Y32204D01*
X10928Y32163D01*
X10958Y32116D01*
X10991Y32069D01*
X11025Y32013D01*
X11338Y31517D01*
X10720D01*
X10346Y32074D01*
X10343Y32077D01*
X10338Y32088D01*
X10327Y32102D01*
X10313Y32121D01*
X10299Y32146D01*
X10279Y32171D01*
X10238Y32232D01*
X10191Y32296D01*
X10147Y32357D01*
X10124Y32384D01*
X10105Y32409D01*
X10088Y32432D01*
X10072Y32448D01*
X10069Y32451D01*
X10061Y32462D01*
X10044Y32473D01*
X10025Y32490D01*
X10002Y32509D01*
X9975Y32526D01*
X9947Y32542D01*
X9917Y32553D01*
X9914Y32556D01*
X9900Y32559D01*
X9881Y32565D01*
X9853Y32570D01*
X9817Y32576D01*
X9773Y32578D01*
X9720Y32584D01*
X9554D01*
Y31517D01*
X9039D01*
Y34074D01*
X10191D01*
X10224Y34071D01*
D02*
G37*
G36*
X39051Y30180D02*
X39076D01*
X39107Y30175D01*
X39143Y30172D01*
X39181Y30163D01*
X39223Y30155D01*
X39270Y30141D01*
X39317Y30128D01*
X39364Y30108D01*
X39411Y30086D01*
X39461Y30058D01*
X39508Y30028D01*
X39553Y29992D01*
X39594Y29950D01*
X39597Y29948D01*
X39602Y29942D01*
X39611Y29931D01*
X39622Y29917D01*
X39636Y29900D01*
X39652Y29878D01*
X39669Y29853D01*
X39685Y29826D01*
X39719Y29765D01*
X39749Y29693D01*
X39760Y29654D01*
X39769Y29612D01*
X39774Y29571D01*
X39777Y29526D01*
Y29524D01*
Y29513D01*
X39774Y29493D01*
X39771Y29471D01*
X39766Y29443D01*
X39757Y29410D01*
X39746Y29371D01*
X39730Y29333D01*
X39710Y29291D01*
X39688Y29247D01*
X39658Y29202D01*
X39622Y29158D01*
X39580Y29114D01*
X39530Y29069D01*
X39472Y29028D01*
X39408Y28989D01*
X39411D01*
X39420Y28986D01*
X39431Y28984D01*
X39445Y28978D01*
X39464Y28972D01*
X39486Y28964D01*
X39533Y28945D01*
X39591Y28917D01*
X39650Y28878D01*
X39705Y28834D01*
X39733Y28806D01*
X39757Y28776D01*
X39760Y28773D01*
X39763Y28767D01*
X39769Y28759D01*
X39780Y28748D01*
X39788Y28731D01*
X39799Y28712D01*
X39813Y28690D01*
X39824Y28665D01*
X39849Y28607D01*
X39871Y28540D01*
X39885Y28463D01*
X39888Y28421D01*
X39891Y28380D01*
Y28377D01*
Y28366D01*
X39888Y28346D01*
Y28324D01*
X39882Y28294D01*
X39877Y28260D01*
X39871Y28225D01*
X39860Y28183D01*
X39846Y28139D01*
X39830Y28092D01*
X39810Y28045D01*
X39785Y27997D01*
X39757Y27948D01*
X39724Y27900D01*
X39688Y27853D01*
X39644Y27806D01*
X39641Y27804D01*
X39633Y27795D01*
X39619Y27784D01*
X39600Y27770D01*
X39575Y27751D01*
X39547Y27731D01*
X39514Y27709D01*
X39475Y27690D01*
X39433Y27668D01*
X39386Y27646D01*
X39334Y27626D01*
X39281Y27607D01*
X39223Y27593D01*
X39162Y27582D01*
X39096Y27574D01*
X39029Y27571D01*
X39012D01*
X38996Y27574D01*
X38971D01*
X38943Y27576D01*
X38907Y27582D01*
X38868Y27587D01*
X38827Y27596D01*
X38783Y27607D01*
X38735Y27621D01*
X38688Y27635D01*
X38641Y27654D01*
X38591Y27679D01*
X38544Y27704D01*
X38497Y27734D01*
X38453Y27770D01*
X38450Y27773D01*
X38442Y27779D01*
X38431Y27790D01*
X38417Y27806D01*
X38400Y27826D01*
X38378Y27851D01*
X38359Y27878D01*
X38334Y27911D01*
X38312Y27948D01*
X38289Y27986D01*
X38267Y28028D01*
X38245Y28075D01*
X38228Y28125D01*
X38212Y28177D01*
X38198Y28236D01*
X38190Y28294D01*
X38663Y28352D01*
Y28349D01*
Y28344D01*
X38666Y28335D01*
X38669Y28321D01*
X38675Y28288D01*
X38688Y28249D01*
X38702Y28202D01*
X38724Y28158D01*
X38752Y28111D01*
X38785Y28072D01*
X38791Y28069D01*
X38802Y28058D01*
X38824Y28042D01*
X38852Y28025D01*
X38888Y28008D01*
X38929Y27992D01*
X38976Y27981D01*
X39026Y27978D01*
X39040D01*
X39051Y27981D01*
X39079Y27983D01*
X39115Y27992D01*
X39156Y28006D01*
X39198Y28025D01*
X39242Y28053D01*
X39284Y28092D01*
X39289Y28097D01*
X39301Y28114D01*
X39317Y28139D01*
X39336Y28175D01*
X39356Y28219D01*
X39373Y28272D01*
X39384Y28333D01*
X39389Y28402D01*
Y28405D01*
Y28410D01*
Y28418D01*
X39386Y28432D01*
Y28449D01*
X39384Y28466D01*
X39378Y28507D01*
X39364Y28554D01*
X39348Y28604D01*
X39323Y28651D01*
X39289Y28695D01*
X39284Y28701D01*
X39273Y28712D01*
X39251Y28731D01*
X39223Y28751D01*
X39187Y28770D01*
X39145Y28790D01*
X39098Y28801D01*
X39046Y28806D01*
X39029D01*
X39010Y28804D01*
X38982Y28801D01*
X38949Y28798D01*
X38913Y28790D01*
X38868Y28781D01*
X38821Y28767D01*
X38874Y29166D01*
X38907D01*
X38924Y29169D01*
X38943D01*
X38987Y29175D01*
X39037Y29183D01*
X39087Y29200D01*
X39134Y29222D01*
X39179Y29249D01*
X39184Y29255D01*
X39195Y29266D01*
X39212Y29285D01*
X39234Y29313D01*
X39253Y29349D01*
X39270Y29391D01*
X39281Y29438D01*
X39287Y29493D01*
Y29496D01*
Y29499D01*
Y29515D01*
X39284Y29537D01*
X39278Y29568D01*
X39267Y29599D01*
X39253Y29634D01*
X39234Y29668D01*
X39209Y29698D01*
X39206Y29701D01*
X39195Y29709D01*
X39179Y29723D01*
X39154Y29737D01*
X39123Y29751D01*
X39090Y29765D01*
X39048Y29773D01*
X39001Y29776D01*
X38979D01*
X38957Y29770D01*
X38927Y29765D01*
X38893Y29754D01*
X38857Y29740D01*
X38821Y29718D01*
X38785Y29687D01*
X38783Y29684D01*
X38771Y29671D01*
X38758Y29651D01*
X38738Y29623D01*
X38719Y29587D01*
X38702Y29546D01*
X38688Y29493D01*
X38677Y29435D01*
X38226Y29510D01*
Y29513D01*
X38228Y29521D01*
X38231Y29532D01*
X38234Y29549D01*
X38240Y29568D01*
X38245Y29590D01*
X38262Y29643D01*
X38281Y29704D01*
X38306Y29765D01*
X38334Y29826D01*
X38367Y29881D01*
Y29884D01*
X38372Y29886D01*
X38384Y29903D01*
X38406Y29931D01*
X38436Y29961D01*
X38472Y29997D01*
X38517Y30033D01*
X38569Y30069D01*
X38630Y30103D01*
X38633D01*
X38638Y30105D01*
X38647Y30111D01*
X38661Y30116D01*
X38677Y30122D01*
X38697Y30128D01*
X38719Y30136D01*
X38744Y30144D01*
X38799Y30158D01*
X38866Y30172D01*
X38938Y30180D01*
X39015Y30183D01*
X39032D01*
X39051Y30180D01*
D02*
G37*
G36*
X36733Y30213D02*
X36772Y30211D01*
X36819Y30205D01*
X36874Y30197D01*
X36935Y30186D01*
X37004Y30172D01*
X37073Y30155D01*
X37145Y30130D01*
X37220Y30103D01*
X37298Y30069D01*
X37370Y30028D01*
X37445Y29983D01*
X37514Y29928D01*
X37578Y29867D01*
X37580Y29864D01*
X37591Y29851D01*
X37608Y29831D01*
X37630Y29803D01*
X37655Y29767D01*
X37683Y29723D01*
X37713Y29673D01*
X37747Y29615D01*
X37777Y29549D01*
X37808Y29477D01*
X37835Y29396D01*
X37860Y29310D01*
X37882Y29216D01*
X37899Y29116D01*
X37910Y29008D01*
X37913Y28895D01*
Y28892D01*
Y28881D01*
Y28862D01*
Y28839D01*
X37910Y28809D01*
X37907Y28776D01*
X37904Y28740D01*
X37902Y28698D01*
X37896Y28654D01*
X37891Y28607D01*
X37874Y28510D01*
X37849Y28410D01*
X37819Y28313D01*
Y28310D01*
X37816Y28305D01*
X37810Y28294D01*
X37805Y28280D01*
X37799Y28263D01*
X37788Y28244D01*
X37766Y28194D01*
X37733Y28139D01*
X37694Y28075D01*
X37650Y28008D01*
X37594Y27942D01*
X37597Y27939D01*
X37602Y27937D01*
X37614Y27928D01*
X37627Y27920D01*
X37647Y27909D01*
X37666Y27895D01*
X37691Y27878D01*
X37719Y27864D01*
X37780Y27828D01*
X37849Y27792D01*
X37927Y27756D01*
X38010Y27726D01*
X37819Y27358D01*
X37813Y27360D01*
X37799Y27363D01*
X37777Y27371D01*
X37747Y27382D01*
X37710Y27396D01*
X37672Y27413D01*
X37589Y27455D01*
X37586D01*
X37580Y27460D01*
X37575Y27466D01*
X37564Y27471D01*
X37553Y27477D01*
X37539Y27488D01*
X37519Y27502D01*
X37495Y27515D01*
X37467Y27535D01*
X37433Y27554D01*
X37398Y27579D01*
X37353Y27610D01*
X37303Y27643D01*
X37245Y27679D01*
X37242D01*
X37234Y27673D01*
X37220Y27668D01*
X37201Y27662D01*
X37179Y27654D01*
X37151Y27646D01*
X37118Y27635D01*
X37082Y27626D01*
X37043Y27615D01*
X37001Y27604D01*
X36954Y27596D01*
X36907Y27587D01*
X36802Y27576D01*
X36691Y27571D01*
X36666D01*
X36652Y27574D01*
X36636D01*
X36594Y27576D01*
X36544Y27582D01*
X36486Y27590D01*
X36423Y27599D01*
X36353Y27615D01*
X36281Y27632D01*
X36206Y27657D01*
X36129Y27684D01*
X36051Y27718D01*
X35976Y27756D01*
X35902Y27804D01*
X35833Y27856D01*
X35766Y27917D01*
X35763Y27920D01*
X35752Y27934D01*
X35735Y27953D01*
X35713Y27981D01*
X35688Y28017D01*
X35661Y28061D01*
X35630Y28111D01*
X35600Y28169D01*
X35569Y28236D01*
X35539Y28308D01*
X35511Y28388D01*
X35486Y28474D01*
X35464Y28568D01*
X35447Y28670D01*
X35436Y28778D01*
X35434Y28892D01*
Y28895D01*
Y28900D01*
Y28909D01*
Y28920D01*
Y28934D01*
X35436Y28953D01*
X35439Y28995D01*
X35445Y29047D01*
X35450Y29108D01*
X35461Y29177D01*
X35475Y29249D01*
X35492Y29327D01*
X35514Y29405D01*
X35542Y29488D01*
X35575Y29568D01*
X35611Y29648D01*
X35655Y29726D01*
X35708Y29798D01*
X35766Y29867D01*
X35769Y29870D01*
X35783Y29881D01*
X35802Y29900D01*
X35827Y29923D01*
X35860Y29948D01*
X35902Y29978D01*
X35952Y30008D01*
X36007Y30042D01*
X36068Y30075D01*
X36137Y30105D01*
X36212Y30136D01*
X36292Y30161D01*
X36378Y30183D01*
X36472Y30202D01*
X36572Y30213D01*
X36677Y30216D01*
X36702D01*
X36733Y30213D01*
D02*
G37*
G36*
X13867Y30193D02*
X13897Y30191D01*
X13933Y30185D01*
X13975Y30180D01*
X14019Y30171D01*
X14066Y30160D01*
X14113Y30146D01*
X14163Y30130D01*
X14213Y30110D01*
X14260Y30085D01*
X14307Y30058D01*
X14354Y30027D01*
X14396Y29991D01*
X14399Y29988D01*
X14404Y29983D01*
X14415Y29969D01*
X14429Y29955D01*
X14446Y29936D01*
X14465Y29911D01*
X14484Y29883D01*
X14507Y29850D01*
X14526Y29817D01*
X14545Y29778D01*
X14565Y29736D01*
X14581Y29692D01*
X14595Y29642D01*
X14606Y29592D01*
X14612Y29540D01*
X14615Y29484D01*
Y29481D01*
Y29476D01*
Y29468D01*
Y29454D01*
X14612Y29440D01*
Y29421D01*
X14606Y29379D01*
X14598Y29326D01*
X14587Y29271D01*
X14573Y29213D01*
X14551Y29155D01*
Y29152D01*
X14548Y29149D01*
X14545Y29138D01*
X14540Y29127D01*
X14532Y29113D01*
X14523Y29096D01*
X14504Y29055D01*
X14476Y29008D01*
X14443Y28952D01*
X14401Y28891D01*
X14354Y28828D01*
X14349Y28822D01*
X14338Y28806D01*
X14313Y28781D01*
X14282Y28745D01*
X14260Y28722D01*
X14238Y28697D01*
X14210Y28673D01*
X14183Y28642D01*
X14149Y28612D01*
X14113Y28576D01*
X14074Y28540D01*
X14033Y28501D01*
X14030Y28498D01*
X14022Y28493D01*
X14011Y28482D01*
X13997Y28468D01*
X13977Y28451D01*
X13955Y28432D01*
X13908Y28387D01*
X13858Y28340D01*
X13811Y28293D01*
X13789Y28271D01*
X13770Y28251D01*
X13753Y28232D01*
X13739Y28218D01*
X13736Y28216D01*
X13728Y28207D01*
X13717Y28193D01*
X13703Y28177D01*
X13689Y28155D01*
X13673Y28132D01*
X13640Y28085D01*
X14615D01*
Y27631D01*
X12897D01*
Y27634D01*
X12900Y27642D01*
Y27656D01*
X12903Y27675D01*
X12908Y27698D01*
X12914Y27725D01*
X12919Y27756D01*
X12928Y27789D01*
X12950Y27864D01*
X12980Y27947D01*
X13016Y28033D01*
X13063Y28119D01*
X13066Y28121D01*
X13069Y28130D01*
X13080Y28144D01*
X13091Y28160D01*
X13108Y28182D01*
X13130Y28213D01*
X13155Y28243D01*
X13185Y28282D01*
X13218Y28324D01*
X13260Y28368D01*
X13304Y28420D01*
X13354Y28473D01*
X13410Y28531D01*
X13473Y28595D01*
X13540Y28662D01*
X13615Y28731D01*
X13617Y28734D01*
X13629Y28745D01*
X13645Y28761D01*
X13667Y28781D01*
X13695Y28806D01*
X13723Y28833D01*
X13756Y28866D01*
X13789Y28900D01*
X13861Y28969D01*
X13928Y29038D01*
X13955Y29069D01*
X13983Y29099D01*
X14005Y29127D01*
X14022Y29149D01*
Y29152D01*
X14027Y29155D01*
X14030Y29163D01*
X14039Y29174D01*
X14055Y29204D01*
X14074Y29243D01*
X14091Y29287D01*
X14108Y29337D01*
X14119Y29393D01*
X14124Y29448D01*
Y29451D01*
Y29456D01*
Y29465D01*
Y29476D01*
X14119Y29504D01*
X14113Y29542D01*
X14102Y29581D01*
X14088Y29623D01*
X14066Y29664D01*
X14036Y29700D01*
X14033Y29703D01*
X14019Y29714D01*
X14000Y29728D01*
X13972Y29745D01*
X13936Y29761D01*
X13894Y29775D01*
X13847Y29786D01*
X13792Y29789D01*
X13767D01*
X13739Y29783D01*
X13703Y29778D01*
X13665Y29767D01*
X13623Y29750D01*
X13581Y29725D01*
X13545Y29695D01*
X13543Y29689D01*
X13532Y29678D01*
X13518Y29656D01*
X13498Y29623D01*
X13482Y29581D01*
X13465Y29528D01*
X13451Y29465D01*
X13446Y29429D01*
X13443Y29390D01*
X12955Y29437D01*
Y29443D01*
X12958Y29454D01*
X12961Y29476D01*
X12967Y29504D01*
X12972Y29537D01*
X12980Y29576D01*
X12991Y29617D01*
X13005Y29662D01*
X13022Y29709D01*
X13041Y29756D01*
X13063Y29805D01*
X13088Y29853D01*
X13116Y29900D01*
X13149Y29944D01*
X13185Y29983D01*
X13227Y30019D01*
X13230Y30022D01*
X13238Y30027D01*
X13252Y30035D01*
X13268Y30046D01*
X13291Y30060D01*
X13318Y30074D01*
X13349Y30091D01*
X13385Y30107D01*
X13426Y30124D01*
X13468Y30141D01*
X13515Y30154D01*
X13568Y30168D01*
X13620Y30180D01*
X13678Y30188D01*
X13739Y30193D01*
X13803Y30196D01*
X13839D01*
X13867Y30193D01*
D02*
G37*
G36*
X11485Y30226D02*
X11523Y30224D01*
X11570Y30218D01*
X11626Y30210D01*
X11687Y30199D01*
X11756Y30185D01*
X11825Y30168D01*
X11897Y30143D01*
X11972Y30116D01*
X12050Y30082D01*
X12122Y30041D01*
X12196Y29997D01*
X12266Y29941D01*
X12329Y29880D01*
X12332Y29877D01*
X12343Y29864D01*
X12360Y29844D01*
X12382Y29817D01*
X12407Y29781D01*
X12435Y29736D01*
X12465Y29686D01*
X12498Y29628D01*
X12529Y29562D01*
X12559Y29490D01*
X12587Y29409D01*
X12612Y29324D01*
X12634Y29229D01*
X12651Y29130D01*
X12662Y29022D01*
X12664Y28908D01*
Y28905D01*
Y28894D01*
Y28875D01*
Y28853D01*
X12662Y28822D01*
X12659Y28789D01*
X12656Y28753D01*
X12653Y28711D01*
X12648Y28667D01*
X12642Y28620D01*
X12626Y28523D01*
X12601Y28423D01*
X12570Y28326D01*
Y28324D01*
X12568Y28318D01*
X12562Y28307D01*
X12557Y28293D01*
X12551Y28277D01*
X12540Y28257D01*
X12518Y28207D01*
X12484Y28152D01*
X12446Y28088D01*
X12401Y28022D01*
X12346Y27955D01*
X12349Y27952D01*
X12354Y27950D01*
X12365Y27941D01*
X12379Y27933D01*
X12399Y27922D01*
X12418Y27908D01*
X12443Y27891D01*
X12471Y27878D01*
X12532Y27842D01*
X12601Y27806D01*
X12678Y27770D01*
X12762Y27739D01*
X12570Y27371D01*
X12565Y27373D01*
X12551Y27376D01*
X12529Y27384D01*
X12498Y27396D01*
X12462Y27409D01*
X12424Y27426D01*
X12340Y27468D01*
X12338D01*
X12332Y27473D01*
X12327Y27479D01*
X12315Y27484D01*
X12304Y27490D01*
X12291Y27501D01*
X12271Y27515D01*
X12246Y27529D01*
X12219Y27548D01*
X12185Y27567D01*
X12149Y27592D01*
X12105Y27623D01*
X12055Y27656D01*
X11997Y27692D01*
X11994D01*
X11986Y27687D01*
X11972Y27681D01*
X11953Y27675D01*
X11930Y27667D01*
X11903Y27659D01*
X11869Y27648D01*
X11834Y27639D01*
X11795Y27628D01*
X11753Y27617D01*
X11706Y27609D01*
X11659Y27601D01*
X11554Y27589D01*
X11443Y27584D01*
X11418D01*
X11404Y27587D01*
X11388D01*
X11346Y27589D01*
X11296Y27595D01*
X11238Y27603D01*
X11174Y27612D01*
X11105Y27628D01*
X11033Y27645D01*
X10958Y27670D01*
X10881Y27698D01*
X10803Y27731D01*
X10728Y27770D01*
X10654Y27817D01*
X10584Y27869D01*
X10518Y27930D01*
X10515Y27933D01*
X10504Y27947D01*
X10487Y27966D01*
X10465Y27994D01*
X10440Y28030D01*
X10413Y28074D01*
X10382Y28124D01*
X10352Y28182D01*
X10321Y28249D01*
X10291Y28321D01*
X10263Y28401D01*
X10238Y28487D01*
X10216Y28581D01*
X10199Y28684D01*
X10188Y28792D01*
X10185Y28905D01*
Y28908D01*
Y28914D01*
Y28922D01*
Y28933D01*
Y28947D01*
X10188Y28966D01*
X10191Y29008D01*
X10197Y29060D01*
X10202Y29121D01*
X10213Y29191D01*
X10227Y29263D01*
X10244Y29340D01*
X10266Y29418D01*
X10293Y29501D01*
X10327Y29581D01*
X10363Y29662D01*
X10407Y29739D01*
X10460Y29811D01*
X10518Y29880D01*
X10521Y29883D01*
X10534Y29894D01*
X10554Y29913D01*
X10579Y29936D01*
X10612Y29961D01*
X10654Y29991D01*
X10703Y30022D01*
X10759Y30055D01*
X10820Y30088D01*
X10889Y30119D01*
X10964Y30149D01*
X11044Y30174D01*
X11130Y30196D01*
X11224Y30215D01*
X11324Y30226D01*
X11429Y30229D01*
X11454D01*
X11485Y30226D01*
D02*
G37*
G36*
X26814Y39231D02*
X26324D01*
Y41073D01*
X26321Y41070D01*
X26312Y41062D01*
X26296Y41048D01*
X26276Y41032D01*
X26252Y41012D01*
X26218Y40987D01*
X26185Y40960D01*
X26144Y40932D01*
X26099Y40901D01*
X26052Y40871D01*
X25999Y40840D01*
X25944Y40810D01*
X25886Y40780D01*
X25822Y40752D01*
X25758Y40727D01*
X25692Y40702D01*
Y41148D01*
X25695D01*
X25700Y41151D01*
X25711Y41153D01*
X25725Y41159D01*
X25745Y41167D01*
X25764Y41176D01*
X25789Y41187D01*
X25817Y41201D01*
X25877Y41231D01*
X25947Y41273D01*
X26024Y41322D01*
X26107Y41383D01*
X26110Y41386D01*
X26118Y41392D01*
X26130Y41400D01*
X26144Y41414D01*
X26163Y41430D01*
X26182Y41453D01*
X26204Y41475D01*
X26229Y41502D01*
X26282Y41563D01*
X26332Y41633D01*
X26379Y41710D01*
X26398Y41752D01*
X26415Y41796D01*
X26814D01*
Y39231D01*
D02*
G37*
G36*
X24085Y41827D02*
X24124Y41824D01*
X24171Y41818D01*
X24227Y41810D01*
X24287Y41799D01*
X24357Y41785D01*
X24426Y41768D01*
X24498Y41743D01*
X24573Y41716D01*
X24650Y41682D01*
X24722Y41641D01*
X24797Y41597D01*
X24867Y41541D01*
X24930Y41480D01*
X24933Y41478D01*
X24944Y41464D01*
X24961Y41444D01*
X24983Y41417D01*
X25008Y41381D01*
X25036Y41336D01*
X25066Y41286D01*
X25099Y41228D01*
X25130Y41162D01*
X25160Y41090D01*
X25188Y41009D01*
X25213Y40924D01*
X25235Y40829D01*
X25251Y40730D01*
X25263Y40622D01*
X25265Y40508D01*
Y40505D01*
Y40494D01*
Y40475D01*
Y40453D01*
X25263Y40422D01*
X25260Y40389D01*
X25257Y40353D01*
X25254Y40311D01*
X25249Y40267D01*
X25243Y40220D01*
X25227Y40123D01*
X25202Y40023D01*
X25171Y39926D01*
Y39924D01*
X25168Y39918D01*
X25163Y39907D01*
X25157Y39893D01*
X25152Y39876D01*
X25141Y39857D01*
X25118Y39807D01*
X25085Y39752D01*
X25047Y39688D01*
X25002Y39622D01*
X24947Y39555D01*
X24950Y39552D01*
X24955Y39550D01*
X24966Y39541D01*
X24980Y39533D01*
X24999Y39522D01*
X25019Y39508D01*
X25044Y39491D01*
X25071Y39478D01*
X25132Y39442D01*
X25202Y39406D01*
X25279Y39370D01*
X25362Y39339D01*
X25171Y38971D01*
X25166Y38974D01*
X25152Y38976D01*
X25130Y38985D01*
X25099Y38996D01*
X25063Y39009D01*
X25024Y39026D01*
X24941Y39068D01*
X24938D01*
X24933Y39073D01*
X24927Y39079D01*
X24916Y39084D01*
X24905Y39090D01*
X24891Y39101D01*
X24872Y39115D01*
X24847Y39129D01*
X24819Y39148D01*
X24786Y39167D01*
X24750Y39192D01*
X24706Y39223D01*
X24656Y39256D01*
X24598Y39292D01*
X24595D01*
X24587Y39287D01*
X24573Y39281D01*
X24554Y39275D01*
X24531Y39267D01*
X24504Y39259D01*
X24470Y39248D01*
X24434Y39239D01*
X24396Y39228D01*
X24354Y39217D01*
X24307Y39209D01*
X24260Y39201D01*
X24155Y39189D01*
X24044Y39184D01*
X24019D01*
X24005Y39187D01*
X23988D01*
X23947Y39189D01*
X23897Y39195D01*
X23839Y39203D01*
X23775Y39212D01*
X23706Y39228D01*
X23634Y39245D01*
X23559Y39270D01*
X23482Y39298D01*
X23404Y39331D01*
X23329Y39370D01*
X23254Y39417D01*
X23185Y39469D01*
X23119Y39530D01*
X23116Y39533D01*
X23105Y39547D01*
X23088Y39566D01*
X23066Y39594D01*
X23041Y39630D01*
X23013Y39674D01*
X22983Y39724D01*
X22952Y39782D01*
X22922Y39849D01*
X22892Y39921D01*
X22864Y40001D01*
X22839Y40087D01*
X22817Y40181D01*
X22800Y40284D01*
X22789Y40392D01*
X22786Y40505D01*
Y40508D01*
Y40514D01*
Y40522D01*
Y40533D01*
Y40547D01*
X22789Y40566D01*
X22792Y40608D01*
X22797Y40660D01*
X22803Y40721D01*
X22814Y40791D01*
X22828Y40863D01*
X22844Y40940D01*
X22866Y41018D01*
X22894Y41101D01*
X22928Y41181D01*
X22964Y41262D01*
X23008Y41339D01*
X23060Y41411D01*
X23119Y41480D01*
X23121Y41483D01*
X23135Y41494D01*
X23155Y41513D01*
X23180Y41536D01*
X23213Y41561D01*
X23254Y41591D01*
X23304Y41622D01*
X23360Y41655D01*
X23420Y41688D01*
X23490Y41719D01*
X23565Y41749D01*
X23645Y41774D01*
X23731Y41796D01*
X23825Y41816D01*
X23925Y41827D01*
X24030Y41829D01*
X24055D01*
X24085Y41827D01*
D02*
G37*
%LPC*%
G36*
X5387Y32840D02*
X4613D01*
Y29000D01*
X5387D01*
Y32840D01*
D02*
G37*
G36*
X46723Y20973D02*
X44855D01*
X44685Y20965D01*
X44527Y20948D01*
X44456Y20935D01*
X44385Y20923D01*
X44323Y20910D01*
X44265Y20898D01*
X44211Y20881D01*
X44165Y20869D01*
X44123Y20856D01*
X44090Y20844D01*
X44065Y20831D01*
X44044Y20827D01*
X44032Y20819D01*
X44028D01*
X43928Y20773D01*
X43836Y20719D01*
X43749Y20661D01*
X43678Y20603D01*
X43616Y20553D01*
X43591Y20532D01*
X43570Y20511D01*
X43553Y20494D01*
X43541Y20482D01*
X43532Y20478D01*
X43528Y20474D01*
X43449Y20382D01*
X43379Y20295D01*
X43316Y20203D01*
X43266Y20124D01*
X43229Y20049D01*
X43212Y20020D01*
X43200Y19995D01*
X43187Y19974D01*
X43179Y19958D01*
X43175Y19949D01*
Y19945D01*
X43146Y19870D01*
X43117Y19787D01*
X43075Y19625D01*
X43042Y19459D01*
X43033Y19379D01*
X43021Y19305D01*
X43017Y19230D01*
X43008Y19167D01*
X43004Y19109D01*
Y19059D01*
X43000Y19018D01*
Y18959D01*
X43004Y18793D01*
X43021Y18635D01*
X43046Y18485D01*
X43079Y18348D01*
X43117Y18219D01*
X43158Y18102D01*
X43204Y17994D01*
X43254Y17899D01*
X43299Y17811D01*
X43345Y17736D01*
X43387Y17670D01*
X43424Y17616D01*
X43458Y17574D01*
X43483Y17545D01*
X43499Y17528D01*
X43503Y17520D01*
X43603Y17428D01*
X43707Y17349D01*
X43815Y17279D01*
X43928Y17221D01*
X44040Y17171D01*
X44157Y17129D01*
X44265Y17091D01*
X44373Y17067D01*
X44473Y17042D01*
X44564Y17029D01*
X44651Y17017D01*
X44722Y17008D01*
X44780Y17004D01*
X44826Y17000D01*
X46723D01*
Y17358D01*
Y17000D01*
X44864D01*
X45018Y17004D01*
X45167Y17021D01*
X45305Y17050D01*
X45434Y17083D01*
X45554Y17121D01*
X45667Y17166D01*
X45766Y17212D01*
X45858Y17262D01*
X45941Y17312D01*
X46012Y17358D01*
X46074Y17403D01*
X46124Y17441D01*
X46166Y17474D01*
X46191Y17503D01*
X46211Y17520D01*
X46216Y17524D01*
X46307Y17628D01*
X46382Y17736D01*
X46453Y17853D01*
X46511Y17973D01*
X46557Y18094D01*
X46598Y18215D01*
X46632Y18335D01*
X46661Y18448D01*
X46682Y18556D01*
X46698Y18660D01*
X46707Y18747D01*
X46715Y18826D01*
X46719Y18893D01*
X46723Y18918D01*
Y17358D01*
Y18918D01*
Y18980D01*
X46719Y19151D01*
X46702Y19313D01*
X46677Y19463D01*
X46644Y19604D01*
X46607Y19733D01*
X46561Y19854D01*
X46515Y19966D01*
X46469Y20062D01*
X46420Y20153D01*
X46374Y20228D01*
X46332Y20295D01*
X46291Y20349D01*
X46257Y20390D01*
X46232Y20419D01*
X46216Y20440D01*
X46211Y20445D01*
X46112Y20536D01*
X46008Y20619D01*
X45900Y20690D01*
X45787Y20748D01*
X45671Y20802D01*
X45558Y20844D01*
X45450Y20877D01*
X45342Y20906D01*
X45242Y20927D01*
X45151Y20944D01*
X45068Y20956D01*
X44997Y20965D01*
X44939Y20969D01*
X44893Y20973D01*
X46723D01*
D02*
G37*
%LPD*%
G36*
X44951Y20307D02*
X45034Y20299D01*
X45113Y20282D01*
X45184Y20261D01*
X45255Y20236D01*
X45317Y20207D01*
X45375Y20178D01*
X45429Y20149D01*
X45475Y20116D01*
X45517Y20087D01*
X45550Y20058D01*
X45579Y20033D01*
X45604Y20012D01*
X45621Y19995D01*
X45629Y19987D01*
X45633Y19983D01*
X45683Y19920D01*
X45729Y19845D01*
X45766Y19771D01*
X45804Y19692D01*
X45829Y19613D01*
X45854Y19529D01*
X45875Y19446D01*
X45887Y19367D01*
X45900Y19292D01*
X45908Y19221D01*
X45916Y19159D01*
X45920Y19105D01*
X45924Y19059D01*
Y19026D01*
Y19005D01*
Y18997D01*
X45920Y18876D01*
X45912Y18760D01*
X45895Y18656D01*
X45879Y18556D01*
X45854Y18469D01*
X45829Y18385D01*
X45804Y18310D01*
X45775Y18244D01*
X45746Y18186D01*
X45721Y18136D01*
X45696Y18090D01*
X45671Y18057D01*
X45654Y18027D01*
X45637Y18011D01*
X45629Y17998D01*
X45625Y17994D01*
X45567Y17936D01*
X45504Y17886D01*
X45442Y17840D01*
X45379Y17803D01*
X45317Y17770D01*
X45251Y17745D01*
X45192Y17720D01*
X45134Y17703D01*
X45076Y17691D01*
X45026Y17678D01*
X44980Y17670D01*
X44943Y17666D01*
X44909D01*
X44884Y17661D01*
X44864D01*
X44780Y17666D01*
X44697Y17678D01*
X44618Y17695D01*
X44548Y17716D01*
X44481Y17740D01*
X44419Y17770D01*
X44360Y17799D01*
X44306Y17832D01*
X44260Y17861D01*
X44219Y17890D01*
X44181Y17919D01*
X44152Y17944D01*
X44127Y17969D01*
X44111Y17986D01*
X44102Y17994D01*
X44098Y17998D01*
X44044Y18065D01*
X43998Y18140D01*
X43961Y18215D01*
X43924Y18294D01*
X43894Y18377D01*
X43874Y18460D01*
X43853Y18539D01*
X43836Y18618D01*
X43824Y18693D01*
X43815Y18764D01*
X43807Y18826D01*
X43803Y18880D01*
Y18926D01*
X43799Y18959D01*
Y18980D01*
Y18989D01*
X43803Y19109D01*
X43811Y19221D01*
X43824Y19325D01*
X43845Y19421D01*
X43865Y19513D01*
X43890Y19592D01*
X43919Y19667D01*
X43944Y19733D01*
X43973Y19791D01*
X43998Y19841D01*
X44023Y19883D01*
X44044Y19916D01*
X44065Y19945D01*
X44077Y19962D01*
X44086Y19974D01*
X44090Y19979D01*
X44148Y20037D01*
X44206Y20087D01*
X44273Y20132D01*
X44335Y20170D01*
X44402Y20203D01*
X44464Y20232D01*
X44527Y20253D01*
X44589Y20270D01*
X44643Y20282D01*
X44697Y20295D01*
X44743Y20303D01*
X44785Y20307D01*
X44818Y20311D01*
X44864D01*
X44951Y20307D01*
D02*
G37*
%LPC*%
G36*
X44976Y12973D02*
X44805D01*
X44710Y12965D01*
X44618Y12956D01*
X44531Y12944D01*
X44448Y12927D01*
X44373Y12910D01*
X44302Y12894D01*
X44240Y12877D01*
X44181Y12860D01*
X44131Y12844D01*
X44090Y12827D01*
X44052Y12811D01*
X44023Y12798D01*
X44003Y12790D01*
X43990Y12786D01*
X43986Y12781D01*
X43899Y12731D01*
X43815Y12677D01*
X43736Y12623D01*
X43666Y12565D01*
X43599Y12503D01*
X43541Y12444D01*
X43483Y12386D01*
X43437Y12328D01*
X43391Y12274D01*
X43354Y12224D01*
X43325Y12178D01*
X43295Y12141D01*
X43275Y12107D01*
X43262Y12083D01*
X43254Y12066D01*
X43250Y12062D01*
X43204Y11974D01*
X43166Y11883D01*
X43133Y11791D01*
X43104Y11700D01*
X43083Y11608D01*
X43062Y11521D01*
X43046Y11434D01*
X43033Y11355D01*
X43021Y11280D01*
X43012Y11213D01*
X43008Y11151D01*
X43004Y11097D01*
X43000Y11055D01*
Y9000D01*
X46590D01*
X44947D01*
X45034Y9004D01*
X45122Y9008D01*
X45292Y9029D01*
X45375Y9042D01*
X45450Y9058D01*
X45525Y9075D01*
X45592Y9092D01*
X45654Y9108D01*
X45712Y9121D01*
X45762Y9137D01*
X45804Y9150D01*
X45837Y9162D01*
X45862Y9171D01*
X45879Y9179D01*
X45883D01*
X45966Y9212D01*
X46045Y9250D01*
X46120Y9283D01*
X46187Y9320D01*
X46253Y9354D01*
X46311Y9387D01*
X46361Y9420D01*
X46411Y9453D01*
X46453Y9483D01*
X46490Y9507D01*
X46519Y9533D01*
X46544Y9553D01*
X46565Y9570D01*
X46578Y9582D01*
X46586Y9587D01*
X46590Y9591D01*
Y11126D01*
X44922D01*
Y10477D01*
X45808D01*
Y9986D01*
X45737Y9936D01*
X45667Y9894D01*
X45596Y9857D01*
X45529Y9824D01*
X45471Y9795D01*
X45425Y9774D01*
X45409Y9765D01*
X45396Y9761D01*
X45388Y9757D01*
X45384D01*
X45292Y9724D01*
X45205Y9703D01*
X45126Y9686D01*
X45051Y9674D01*
X44989Y9666D01*
X44959D01*
X44939Y9661D01*
X44897D01*
X44805Y9666D01*
X44722Y9678D01*
X44643Y9695D01*
X44564Y9715D01*
X44493Y9741D01*
X44431Y9770D01*
X44369Y9799D01*
X44315Y9832D01*
X44269Y9865D01*
X44223Y9894D01*
X44190Y9923D01*
X44157Y9949D01*
X44136Y9969D01*
X44115Y9990D01*
X44107Y9998D01*
X44102Y10003D01*
X44048Y10069D01*
X44003Y10144D01*
X43961Y10223D01*
X43928Y10306D01*
X43899Y10394D01*
X43874Y10477D01*
X43853Y10564D01*
X43836Y10643D01*
X43824Y10722D01*
X43815Y10797D01*
X43807Y10859D01*
X43803Y10918D01*
Y10964D01*
X43799Y11001D01*
Y11022D01*
Y11030D01*
X43803Y11147D01*
X43811Y11255D01*
X43828Y11355D01*
X43845Y11446D01*
X43869Y11533D01*
X43894Y11613D01*
X43919Y11683D01*
X43949Y11746D01*
X43978Y11804D01*
X44003Y11850D01*
X44028Y11891D01*
X44052Y11925D01*
X44069Y11954D01*
X44086Y11970D01*
X44094Y11983D01*
X44098Y11987D01*
X44157Y12045D01*
X44219Y12095D01*
X44285Y12137D01*
X44352Y12174D01*
X44419Y12207D01*
X44485Y12232D01*
X44552Y12253D01*
X44614Y12270D01*
X44672Y12282D01*
X44731Y12295D01*
X44780Y12303D01*
X44822Y12307D01*
X44855Y12311D01*
X44905D01*
X45026Y12303D01*
X45134Y12286D01*
X45230Y12257D01*
X45309Y12228D01*
X45342Y12212D01*
X45375Y12199D01*
X45400Y12182D01*
X45421Y12170D01*
X45442Y12162D01*
X45454Y12153D01*
X45459Y12145D01*
X45463D01*
X45542Y12078D01*
X45604Y12008D01*
X45658Y11933D01*
X45700Y11862D01*
X45733Y11800D01*
X45746Y11771D01*
X45754Y11746D01*
X45762Y11729D01*
X45766Y11712D01*
X45771Y11704D01*
Y11700D01*
X46540Y11845D01*
X46515Y11941D01*
X46486Y12033D01*
X46449Y12120D01*
X46411Y12199D01*
X46370Y12270D01*
X46324Y12341D01*
X46282Y12403D01*
X46237Y12457D01*
X46195Y12507D01*
X46153Y12553D01*
X46116Y12586D01*
X46087Y12619D01*
X46058Y12644D01*
X46037Y12661D01*
X46024Y12669D01*
X46020Y12673D01*
X45941Y12727D01*
X45858Y12773D01*
X45771Y12811D01*
X45679Y12848D01*
X45583Y12877D01*
X45492Y12898D01*
X45400Y12919D01*
X45313Y12935D01*
X45230Y12948D01*
X45155Y12956D01*
X45084Y12965D01*
X45022Y12969D01*
X44976Y12973D01*
D02*
G37*
%LPD*%
G36*
X43004Y10893D02*
X43008Y10793D01*
X43021Y10697D01*
X43033Y10602D01*
X43054Y10514D01*
X43071Y10431D01*
X43091Y10352D01*
X43112Y10277D01*
X43133Y10211D01*
X43154Y10152D01*
X43175Y10098D01*
X43191Y10057D01*
X43204Y10019D01*
X43216Y9994D01*
X43220Y9978D01*
X43225Y9973D01*
X43270Y9886D01*
X43316Y9807D01*
X43370Y9732D01*
X43424Y9661D01*
X43478Y9599D01*
X43537Y9537D01*
X43591Y9483D01*
X43645Y9437D01*
X43695Y9391D01*
X43740Y9354D01*
X43786Y9324D01*
X43819Y9295D01*
X43853Y9275D01*
X43874Y9262D01*
X43890Y9254D01*
X43894Y9250D01*
X43982Y9204D01*
X44069Y9166D01*
X44157Y9133D01*
X44248Y9104D01*
X44339Y9083D01*
X44427Y9062D01*
X44510Y9046D01*
X44589Y9033D01*
X44664Y9021D01*
X44731Y9013D01*
X44793Y9008D01*
X44847Y9004D01*
X44889Y9000D01*
X43000D01*
Y10997D01*
X43004Y10893D01*
D02*
G37*
%LPC*%
G36*
X43683Y40232D02*
Y39238D01*
X42676D01*
Y40232D01*
X43683D01*
X42007D01*
Y39238D01*
X41000D01*
Y38548D01*
X42007D01*
Y37553D01*
X41000D01*
X42676D01*
Y38548D01*
X43683D01*
Y40232D01*
D02*
G37*
G36*
X47481Y40840D02*
X46658D01*
X45717Y37998D01*
X44744Y40840D01*
X43908D01*
X45276Y37000D01*
X43908D01*
X47481D01*
X46108D01*
X47481Y40840D01*
D02*
G37*
G36*
X4683Y40232D02*
Y39238D01*
X3677D01*
Y40232D01*
X4683D01*
X3007D01*
Y39238D01*
X2000D01*
Y38548D01*
X3007D01*
Y37553D01*
X2000D01*
X3677D01*
Y38548D01*
X4683D01*
Y40232D01*
D02*
G37*
G36*
X8481Y40840D02*
X7658D01*
X6717Y37998D01*
X5744Y40840D01*
X4908D01*
X6277Y37000D01*
X4908D01*
X8481D01*
X7108D01*
X8481Y40840D01*
D02*
G37*
G36*
X32371Y11070D02*
X31817D01*
Y10419D01*
X32288D01*
X32321Y10422D01*
X32396D01*
X32476Y10427D01*
X32551Y10433D01*
X32584Y10435D01*
X32615Y10438D01*
X32642Y10444D01*
X32662Y10449D01*
X32667Y10452D01*
X32678Y10455D01*
X32695Y10463D01*
X32714Y10474D01*
X32739Y10488D01*
X32764Y10508D01*
X32787Y10530D01*
X32809Y10557D01*
X32811Y10560D01*
X32817Y10571D01*
X32825Y10588D01*
X32836Y10610D01*
X32845Y10638D01*
X32853Y10671D01*
X32858Y10710D01*
X32861Y10751D01*
Y10754D01*
Y10757D01*
Y10773D01*
X32858Y10796D01*
X32853Y10826D01*
X32845Y10859D01*
X32831Y10892D01*
X32814Y10926D01*
X32792Y10959D01*
X32789Y10962D01*
X32778Y10973D01*
X32764Y10987D01*
X32742Y11000D01*
X32714Y11020D01*
X32681Y11034D01*
X32640Y11048D01*
X32595Y11059D01*
X32592D01*
X32581Y11062D01*
X32559D01*
X32546Y11064D01*
X32504D01*
X32476Y11067D01*
X32410D01*
X32371Y11070D01*
D02*
G37*
G36*
X18119Y10732D02*
X17534Y9862D01*
X18119D01*
Y10732D01*
D02*
G37*
G36*
X15758Y11042D02*
X15204D01*
Y10391D01*
X15675D01*
X15709Y10394D01*
X15783D01*
X15864Y10399D01*
X15938Y10405D01*
X15972Y10408D01*
X16002Y10411D01*
X16030Y10416D01*
X16049Y10422D01*
X16055Y10424D01*
X16066Y10427D01*
X16083Y10435D01*
X16102Y10447D01*
X16127Y10460D01*
X16152Y10480D01*
X16174Y10502D01*
X16196Y10530D01*
X16199Y10532D01*
X16204Y10543D01*
X16213Y10560D01*
X16224Y10582D01*
X16232Y10610D01*
X16240Y10643D01*
X16246Y10682D01*
X16249Y10723D01*
Y10726D01*
Y10729D01*
Y10746D01*
X16246Y10768D01*
X16240Y10798D01*
X16232Y10832D01*
X16218Y10865D01*
X16202Y10898D01*
X16180Y10931D01*
X16177Y10934D01*
X16166Y10945D01*
X16152Y10959D01*
X16130Y10973D01*
X16102Y10992D01*
X16069Y11006D01*
X16027Y11020D01*
X15983Y11031D01*
X15980D01*
X15969Y11034D01*
X15947D01*
X15933Y11037D01*
X15891D01*
X15864Y11039D01*
X15797D01*
X15758Y11042D01*
D02*
G37*
G36*
X8053Y14683D02*
X8050D01*
X8047D01*
X8031D01*
X8009Y14681D01*
X7978Y14675D01*
X7945Y14667D01*
X7912Y14653D01*
X7878Y14636D01*
X7845Y14614D01*
X7842Y14611D01*
X7831Y14600D01*
X7818Y14586D01*
X7804Y14564D01*
X7784Y14537D01*
X7770Y14503D01*
X7756Y14462D01*
X7745Y14417D01*
Y14415D01*
X7743Y14404D01*
Y14381D01*
X7740Y14368D01*
Y14326D01*
X7737Y14298D01*
Y14232D01*
X7734Y14193D01*
Y13639D01*
X8385D01*
Y14110D01*
X8383Y14143D01*
Y14218D01*
X8377Y14298D01*
X8371Y14373D01*
X8369Y14406D01*
X8366Y14437D01*
X8360Y14465D01*
X8355Y14484D01*
X8352Y14490D01*
X8349Y14501D01*
X8341Y14517D01*
X8330Y14537D01*
X8316Y14561D01*
X8297Y14586D01*
X8275Y14609D01*
X8247Y14631D01*
X8244Y14634D01*
X8233Y14639D01*
X8216Y14647D01*
X8194Y14659D01*
X8167Y14667D01*
X8133Y14675D01*
X8095Y14681D01*
X8053Y14683D01*
D02*
G37*
G36*
X39507Y33842D02*
X38953D01*
Y33191D01*
X39424D01*
X39457Y33194D01*
X39532D01*
X39612Y33199D01*
X39687Y33205D01*
X39720Y33208D01*
X39751Y33211D01*
X39778Y33216D01*
X39798Y33222D01*
X39803Y33224D01*
X39814Y33227D01*
X39831Y33235D01*
X39850Y33246D01*
X39875Y33260D01*
X39900Y33280D01*
X39922Y33302D01*
X39945Y33330D01*
X39947Y33332D01*
X39953Y33343D01*
X39961Y33360D01*
X39972Y33382D01*
X39981Y33410D01*
X39989Y33443D01*
X39994Y33482D01*
X39997Y33523D01*
Y33526D01*
Y33529D01*
Y33546D01*
X39994Y33568D01*
X39989Y33598D01*
X39981Y33632D01*
X39967Y33665D01*
X39950Y33698D01*
X39928Y33731D01*
X39925Y33734D01*
X39914Y33745D01*
X39900Y33759D01*
X39878Y33773D01*
X39850Y33792D01*
X39817Y33806D01*
X39776Y33820D01*
X39731Y33831D01*
X39729D01*
X39718Y33834D01*
X39695D01*
X39682Y33836D01*
X39640D01*
X39612Y33839D01*
X39546D01*
X39507Y33842D01*
D02*
G37*
G36*
X10108Y33642D02*
X9554D01*
Y32991D01*
X10025D01*
X10058Y32994D01*
X10133D01*
X10213Y32999D01*
X10288Y33005D01*
X10321Y33008D01*
X10351Y33011D01*
X10379Y33016D01*
X10399Y33022D01*
X10404Y33024D01*
X10415Y33027D01*
X10432Y33035D01*
X10451Y33046D01*
X10476Y33060D01*
X10501Y33080D01*
X10523Y33102D01*
X10545Y33130D01*
X10548Y33132D01*
X10554Y33143D01*
X10562Y33160D01*
X10573Y33182D01*
X10581Y33210D01*
X10590Y33243D01*
X10595Y33282D01*
X10598Y33323D01*
Y33326D01*
Y33329D01*
Y33346D01*
X10595Y33368D01*
X10590Y33398D01*
X10581Y33432D01*
X10568Y33465D01*
X10551Y33498D01*
X10529Y33531D01*
X10526Y33534D01*
X10515Y33545D01*
X10501Y33559D01*
X10479Y33573D01*
X10451Y33592D01*
X10418Y33606D01*
X10377Y33620D01*
X10332Y33631D01*
X10329D01*
X10318Y33634D01*
X10296D01*
X10282Y33637D01*
X10241D01*
X10213Y33639D01*
X10147D01*
X10108Y33642D01*
D02*
G37*
G36*
X36672Y29776D02*
X36641D01*
X36619Y29773D01*
X36591Y29770D01*
X36561Y29765D01*
X36528Y29756D01*
X36489Y29748D01*
X36450Y29737D01*
X36409Y29723D01*
X36364Y29704D01*
X36323Y29682D01*
X36278Y29657D01*
X36237Y29626D01*
X36198Y29593D01*
X36159Y29554D01*
X36156Y29551D01*
X36151Y29543D01*
X36143Y29532D01*
X36129Y29513D01*
X36115Y29490D01*
X36098Y29463D01*
X36082Y29430D01*
X36062Y29391D01*
X36046Y29346D01*
X36026Y29296D01*
X36010Y29241D01*
X35996Y29183D01*
X35982Y29119D01*
X35974Y29047D01*
X35968Y28972D01*
X35965Y28892D01*
Y28887D01*
Y28873D01*
Y28850D01*
X35968Y28817D01*
X35971Y28781D01*
X35976Y28740D01*
X35982Y28690D01*
X35990Y28640D01*
X35999Y28587D01*
X36013Y28532D01*
X36029Y28477D01*
X36048Y28421D01*
X36071Y28366D01*
X36096Y28313D01*
X36126Y28266D01*
X36159Y28222D01*
X36162Y28219D01*
X36168Y28214D01*
X36179Y28202D01*
X36195Y28188D01*
X36215Y28169D01*
X36237Y28152D01*
X36265Y28130D01*
X36295Y28111D01*
X36331Y28092D01*
X36367Y28069D01*
X36409Y28053D01*
X36453Y28036D01*
X36500Y28019D01*
X36550Y28008D01*
X36603Y28003D01*
X36658Y28000D01*
X36677D01*
X36700Y28003D01*
X36727Y28006D01*
X36758Y28008D01*
X36794Y28017D01*
X36830Y28025D01*
X36868Y28036D01*
X36866D01*
X36860Y28042D01*
X36852Y28047D01*
X36841Y28053D01*
X36827Y28061D01*
X36810Y28072D01*
X36769Y28094D01*
X36722Y28119D01*
X36666Y28147D01*
X36611Y28175D01*
X36550Y28197D01*
X36694Y28496D01*
X36697D01*
X36705Y28493D01*
X36719Y28488D01*
X36738Y28479D01*
X36760Y28471D01*
X36788Y28460D01*
X36816Y28446D01*
X36849Y28429D01*
X36924Y28394D01*
X37007Y28346D01*
X37093Y28294D01*
X37179Y28230D01*
X37184Y28236D01*
X37195Y28252D01*
X37212Y28274D01*
X37234Y28310D01*
X37259Y28349D01*
X37284Y28399D01*
X37309Y28452D01*
X37328Y28513D01*
Y28515D01*
X37331Y28521D01*
X37334Y28529D01*
X37337Y28543D01*
X37339Y28557D01*
X37345Y28576D01*
X37350Y28598D01*
X37356Y28623D01*
X37364Y28679D01*
X37373Y28745D01*
X37378Y28817D01*
X37381Y28895D01*
Y28900D01*
Y28914D01*
Y28936D01*
X37378Y28967D01*
X37375Y29003D01*
X37370Y29047D01*
X37364Y29092D01*
X37356Y29141D01*
X37345Y29194D01*
X37334Y29249D01*
X37317Y29305D01*
X37298Y29360D01*
X37276Y29413D01*
X37248Y29463D01*
X37220Y29510D01*
X37184Y29554D01*
X37181Y29557D01*
X37176Y29562D01*
X37165Y29574D01*
X37148Y29590D01*
X37129Y29607D01*
X37107Y29623D01*
X37079Y29645D01*
X37046Y29665D01*
X37012Y29684D01*
X36974Y29706D01*
X36929Y29723D01*
X36885Y29743D01*
X36835Y29756D01*
X36785Y29767D01*
X36730Y29773D01*
X36672Y29776D01*
D02*
G37*
G36*
X11424Y29789D02*
X11393D01*
X11371Y29786D01*
X11343Y29783D01*
X11313Y29778D01*
X11280Y29770D01*
X11241Y29761D01*
X11202Y29750D01*
X11160Y29736D01*
X11116Y29717D01*
X11075Y29695D01*
X11030Y29670D01*
X10989Y29639D01*
X10950Y29606D01*
X10911Y29567D01*
X10908Y29564D01*
X10903Y29556D01*
X10894Y29545D01*
X10881Y29526D01*
X10867Y29504D01*
X10850Y29476D01*
X10834Y29443D01*
X10814Y29404D01*
X10798Y29359D01*
X10778Y29310D01*
X10762Y29254D01*
X10748Y29196D01*
X10734Y29132D01*
X10725Y29060D01*
X10720Y28986D01*
X10717Y28905D01*
Y28900D01*
Y28886D01*
Y28864D01*
X10720Y28831D01*
X10723Y28795D01*
X10728Y28753D01*
X10734Y28703D01*
X10742Y28653D01*
X10751Y28601D01*
X10764Y28545D01*
X10781Y28490D01*
X10800Y28434D01*
X10823Y28379D01*
X10847Y28326D01*
X10878Y28279D01*
X10911Y28235D01*
X10914Y28232D01*
X10919Y28227D01*
X10931Y28216D01*
X10947Y28202D01*
X10966Y28182D01*
X10989Y28166D01*
X11016Y28144D01*
X11047Y28124D01*
X11083Y28105D01*
X11119Y28083D01*
X11160Y28066D01*
X11205Y28049D01*
X11252Y28033D01*
X11302Y28022D01*
X11354Y28016D01*
X11410Y28013D01*
X11429D01*
X11451Y28016D01*
X11479Y28019D01*
X11509Y28022D01*
X11546Y28030D01*
X11581Y28038D01*
X11620Y28049D01*
X11618D01*
X11612Y28055D01*
X11604Y28060D01*
X11592Y28066D01*
X11579Y28074D01*
X11562Y28085D01*
X11520Y28108D01*
X11473Y28132D01*
X11418Y28160D01*
X11363Y28188D01*
X11302Y28210D01*
X11446Y28509D01*
X11449D01*
X11457Y28506D01*
X11471Y28501D01*
X11490Y28493D01*
X11512Y28484D01*
X11540Y28473D01*
X11568Y28459D01*
X11601Y28443D01*
X11676Y28407D01*
X11759Y28360D01*
X11845Y28307D01*
X11930Y28243D01*
X11936Y28249D01*
X11947Y28265D01*
X11964Y28288D01*
X11986Y28324D01*
X12011Y28362D01*
X12036Y28412D01*
X12061Y28465D01*
X12080Y28526D01*
Y28528D01*
X12083Y28534D01*
X12086Y28542D01*
X12088Y28556D01*
X12091Y28570D01*
X12097Y28589D01*
X12102Y28612D01*
X12108Y28637D01*
X12116Y28692D01*
X12124Y28758D01*
X12130Y28831D01*
X12133Y28908D01*
Y28914D01*
Y28927D01*
Y28950D01*
X12130Y28980D01*
X12127Y29016D01*
X12122Y29060D01*
X12116Y29105D01*
X12108Y29155D01*
X12097Y29207D01*
X12086Y29263D01*
X12069Y29318D01*
X12050Y29373D01*
X12027Y29426D01*
X12000Y29476D01*
X11972Y29523D01*
X11936Y29567D01*
X11933Y29570D01*
X11928Y29576D01*
X11917Y29587D01*
X11900Y29603D01*
X11881Y29620D01*
X11858Y29636D01*
X11831Y29659D01*
X11797Y29678D01*
X11764Y29697D01*
X11726Y29720D01*
X11681Y29736D01*
X11637Y29756D01*
X11587Y29770D01*
X11537Y29781D01*
X11482Y29786D01*
X11424Y29789D01*
D02*
G37*
G36*
X24024Y41389D02*
X23994D01*
X23972Y41386D01*
X23944Y41383D01*
X23914Y41378D01*
X23880Y41370D01*
X23842Y41361D01*
X23803Y41350D01*
X23761Y41336D01*
X23717Y41317D01*
X23675Y41295D01*
X23631Y41270D01*
X23589Y41239D01*
X23551Y41206D01*
X23512Y41167D01*
X23509Y41164D01*
X23504Y41156D01*
X23495Y41145D01*
X23482Y41126D01*
X23468Y41104D01*
X23451Y41076D01*
X23434Y41043D01*
X23415Y41004D01*
X23398Y40960D01*
X23379Y40910D01*
X23362Y40854D01*
X23348Y40796D01*
X23335Y40732D01*
X23326Y40660D01*
X23321Y40586D01*
X23318Y40505D01*
Y40500D01*
Y40486D01*
Y40464D01*
X23321Y40431D01*
X23324Y40394D01*
X23329Y40353D01*
X23335Y40303D01*
X23343Y40253D01*
X23351Y40201D01*
X23365Y40145D01*
X23382Y40090D01*
X23401Y40034D01*
X23423Y39979D01*
X23448Y39926D01*
X23479Y39879D01*
X23512Y39835D01*
X23515Y39832D01*
X23520Y39827D01*
X23531Y39816D01*
X23548Y39802D01*
X23567Y39782D01*
X23589Y39766D01*
X23617Y39744D01*
X23648Y39724D01*
X23684Y39705D01*
X23720Y39683D01*
X23761Y39666D01*
X23806Y39649D01*
X23853Y39633D01*
X23902Y39622D01*
X23955Y39616D01*
X24011Y39613D01*
X24030D01*
X24052Y39616D01*
X24080Y39619D01*
X24110Y39622D01*
X24146Y39630D01*
X24182Y39638D01*
X24221Y39649D01*
X24218D01*
X24213Y39655D01*
X24204Y39660D01*
X24193Y39666D01*
X24180Y39674D01*
X24163Y39685D01*
X24121Y39707D01*
X24074Y39732D01*
X24019Y39760D01*
X23964Y39788D01*
X23902Y39810D01*
X24047Y40109D01*
X24049D01*
X24058Y40106D01*
X24071Y40101D01*
X24091Y40093D01*
X24113Y40084D01*
X24141Y40073D01*
X24168Y40059D01*
X24202Y40043D01*
X24276Y40007D01*
X24360Y39960D01*
X24445Y39907D01*
X24531Y39843D01*
X24537Y39849D01*
X24548Y39865D01*
X24565Y39887D01*
X24587Y39924D01*
X24612Y39962D01*
X24637Y40012D01*
X24661Y40065D01*
X24681Y40126D01*
Y40128D01*
X24684Y40134D01*
X24686Y40142D01*
X24689Y40156D01*
X24692Y40170D01*
X24698Y40189D01*
X24703Y40212D01*
X24709Y40237D01*
X24717Y40292D01*
X24725Y40358D01*
X24731Y40431D01*
X24734Y40508D01*
Y40514D01*
Y40527D01*
Y40550D01*
X24731Y40580D01*
X24728Y40616D01*
X24722Y40660D01*
X24717Y40705D01*
X24709Y40755D01*
X24698Y40807D01*
X24686Y40863D01*
X24670Y40918D01*
X24650Y40973D01*
X24628Y41026D01*
X24601Y41076D01*
X24573Y41123D01*
X24537Y41167D01*
X24534Y41170D01*
X24529Y41176D01*
X24518Y41187D01*
X24501Y41203D01*
X24482Y41220D01*
X24459Y41236D01*
X24432Y41259D01*
X24398Y41278D01*
X24365Y41298D01*
X24326Y41320D01*
X24282Y41336D01*
X24238Y41356D01*
X24188Y41370D01*
X24138Y41381D01*
X24083Y41386D01*
X24024Y41389D01*
D02*
G37*
%LPD*%
D10*
X32579Y36587D02*
G03*
X32579Y36587I-492J0D01*
G01*
X26406Y19457D02*
G03*
X26406Y19457I-492J0D01*
G01*
X10406Y19413D02*
G03*
X10406Y19413I-492J0D01*
G01*
D11*
X18898Y29598D02*
X22244D01*
X18898D02*
Y32748D01*
X27756Y29598D02*
X31102D01*
Y32748D01*
X32606Y12720D02*
X33394D01*
X32606Y15280D02*
X33394D01*
X34721Y35606D02*
Y36394D01*
X37279Y35606D02*
Y36394D01*
X35756Y26445D02*
X39102D01*
Y23295D02*
Y26445D01*
X26898D02*
X30244D01*
X26898Y23295D02*
Y26445D01*
X16606Y12720D02*
X17394D01*
X16606Y15280D02*
X17394D01*
X3720Y14606D02*
Y15394D01*
X6279Y14606D02*
Y15394D01*
X13721Y35606D02*
Y36394D01*
X16280Y35606D02*
Y36394D01*
X19756Y26402D02*
X23102D01*
Y23252D02*
Y26402D01*
X10898D02*
X14244D01*
X10898Y23252D02*
Y26402D01*
M02*
