G04*
G04 #@! TF.GenerationSoftware,Altium Limited,Altium Designer,24.6.1 (21)*
G04*
G04 Layer_Color=417716*
%FSLAX25Y25*%
%MOIN*%
G70*
G04*
G04 #@! TF.SameCoordinates,92C08AAC-CC59-47DC-8000-F7C2F8DBA572*
G04*
G04*
G04 #@! TF.FilePolarity,Negative*
G04*
G01*
G75*
%ADD15R,0.02756X0.05118*%
%ADD16R,0.03556X0.04147*%
%ADD17R,0.04147X0.03556*%
%ADD18C,0.05800*%
%ADD19O,0.08300X0.05800*%
G36*
X14441Y17051D02*
X12079D01*
Y21776D01*
X14441D01*
Y17051D01*
D02*
G37*
G36*
X19559D02*
X21921D01*
Y21776D01*
X19559D01*
Y17051D01*
D02*
G37*
G36*
X15819Y24138D02*
X18181D01*
Y28862D01*
X15819D01*
Y24138D01*
D02*
G37*
G36*
X22441Y38949D02*
X20079D01*
Y34224D01*
X22441D01*
Y38949D01*
D02*
G37*
G36*
X29921Y34224D02*
X27559D01*
Y38949D01*
X29921D01*
Y34224D01*
D02*
G37*
G36*
X26181Y27138D02*
X23819D01*
Y31862D01*
X26181D01*
Y27138D01*
D02*
G37*
G36*
X34181Y24181D02*
X31819D01*
Y28905D01*
X34181D01*
Y24181D01*
D02*
G37*
G36*
X37921Y17095D02*
X35559D01*
Y21819D01*
X37921D01*
Y17095D01*
D02*
G37*
G36*
X30441D02*
X28079D01*
Y21819D01*
X30441D01*
Y17095D01*
D02*
G37*
D15*
X25000Y29500D02*
D03*
X21260Y36587D02*
D03*
X28740D02*
D03*
X33000Y26543D02*
D03*
X36740Y19457D02*
D03*
X29260D02*
D03*
X17000Y26500D02*
D03*
X20740Y19413D02*
D03*
X13260D02*
D03*
D16*
X36248Y14000D02*
D03*
X29752D02*
D03*
X20248D02*
D03*
X13752D02*
D03*
D17*
X36000Y32752D02*
D03*
Y39248D02*
D03*
X5000Y11752D02*
D03*
Y18248D02*
D03*
X15000Y32752D02*
D03*
Y39248D02*
D03*
D18*
X36000Y45000D02*
X45000D01*
X21000D02*
X36000D01*
X15000D02*
X21000D01*
X5000D02*
X15000D01*
X36000Y5000D02*
X45000D01*
X20500D02*
X36000D01*
X5000D02*
X20500D01*
D19*
X5000D02*
D03*
X45000Y45000D02*
D03*
X5000D02*
D03*
X45000Y5000D02*
D03*
X5000Y25000D02*
D03*
X45000D02*
D03*
M02*
